<svg width="585" height="440" viewBox="0 0 585 440" fill="none" xmlns="http://www.w3.org/2000/svg">
<g clip-path="url(#clip0_1_1098)">
<rect width="585" height="440" fill="#70DE4C"/>
<path d="M39.5162 433H40.8947V434.111H41.5839V435.222H42.2731V438" stroke="#519700"/>
<path d="M45.9491 432H45.0301V433.333H44.5706V434.667H44.1111V438" stroke="#519700"/>
<path d="M120.516 392H121.895V393.111H122.584V394.222H123.273V397" stroke="#519700"/>
<path d="M126.949 391H126.03V392.333H125.571V393.667H125.111V397" stroke="#519700"/>
<path d="M25 355.617H29.2931V358.147H31.4397V360.676H33.5862V367" stroke="#519700"/>
<path d="M45.0345 353.34H42.1724V356.376H40.7414V359.411H39.3103V367" stroke="#519700"/>
<path d="M283.046 331H284.425V332.111H285.114V333.222H285.803V336" stroke="#519700"/>
<path d="M289.479 330H288.56V331.333H288.101V332.667H287.641V336" stroke="#519700"/>
<path d="M364.046 227.714H365.425V228.508H366.114V229.302H366.803V231.286" stroke="#519700"/>
<path d="M370.479 227H369.56V227.952H369.101V228.905H368.641V231.286" stroke="#519700"/>
<path d="M367.677 47.7143H369.056V48.5079H369.745V49.3016H370.434V51.2857" stroke="#519700"/>
<path d="M374.11 47H373.191V47.9524H372.732V48.9048H372.272V51.2857" stroke="#519700"/>
<path d="M441.428 225.714H442.807V226.508H443.496V227.302H444.185V229.286" stroke="#519700"/>
<path d="M447.861 225H446.942V225.952H446.483V226.905H446.023V229.286" stroke="#519700"/>
<path d="M384.573 355.434H385.832V355.847H386.462V356.261H387.091V357.294" stroke="#519700"/>
<path d="M390.448 355.062H389.608V355.558H389.189V356.054H388.769V357.294" stroke="#519700"/>
<path d="M522.013 378.399H522.99V378.602H523.478V378.805H523.966V379.313" stroke="#519700"/>
<path d="M526.57 378.216H525.919V378.46H525.594V378.703H525.268V379.313" stroke="#519700"/>
<path d="M455.013 399.399H455.99V399.602H456.478V399.805H456.966V400.313" stroke="#519700"/>
<path d="M459.57 399.216H458.919V399.46H458.594V399.703H458.268V400.313" stroke="#519700"/>
<path d="M276.701 395.714H278.079V396.508H278.768V397.302H279.458V399.286" stroke="#519700"/>
<path d="M283.133 395H282.215V395.952H281.755V396.905H281.296V399.286" stroke="#519700"/>
<path d="M184.133 204.528H186.989V205.613H188.417V206.697H189.844V209.408" stroke="#519700"/>
<path d="M197.46 203.552H195.556V204.853H194.604V206.155H193.652V209.408" stroke="#519700"/>
<path d="M214.133 311.209H216.989V312.293H218.417V313.378H219.844V316.089" stroke="#519700"/>
<path d="M227.46 310.233H225.556V311.534H224.604V312.836H223.652V316.089" stroke="#519700"/>
<path d="M31.1484 250.235H34.0043V251.319H35.4323V252.404H36.8602V255.115" stroke="#519700"/>
<path d="M44.476 249.259H42.5721V250.56H41.6201V251.862H40.6681V255.115" stroke="#519700"/>
<path d="M329.125 182.714H330.503V183.508H331.193V184.302H331.882V186.286" stroke="#519700"/>
<path d="M335.558 182H334.639V182.952H334.179V183.905H333.72V186.286" stroke="#519700"/>
<path d="M332.756 2.71429H334.134V3.50794H334.824V4.30159H335.513V6.28572" stroke="#519700"/>
<path d="M339.189 2H338.27V2.95238H337.81V3.90476H337.351V6.28571" stroke="#519700"/>
<path d="M406.507 180.714H407.886V181.508H408.575V182.302H409.264V184.286" stroke="#519700"/>
<path d="M412.94 180H412.021V180.952H411.561V181.905H411.102V184.286" stroke="#519700"/>
<path d="M352.686 331.995H353.944V332.409H354.574V332.822H355.203V333.856" stroke="#519700"/>
<path d="M358.56 331.623H357.721V332.119H357.301V332.615H356.881V333.856" stroke="#519700"/>
<path d="M130 122.983H132.435V123.751H133.652V124.52H134.869V126.441" stroke="#519700"/>
<path d="M141.362 122.291H139.739V123.213H138.927V124.136H138.116V126.441" stroke="#519700"/>
<path d="M76.0533 124.692H78.488V125.46H79.7054V126.229H80.9227V128.15" stroke="#519700"/>
<path d="M87.4153 124H85.7922V124.922H84.9806V125.844H84.169V128.15" stroke="#519700"/>
<path d="M580.312 369.882H581.691V370.993H582.38V372.105H583.069V374.882" stroke="#519700"/>
<path d="M586.745 368.882H585.826V370.216H585.367V371.549H584.907V374.882" stroke="#519700"/>
<path d="M513.312 390.882H514.691V391.993H515.38V393.105H516.069V395.882" stroke="#519700"/>
<path d="M519.745 389.882H518.826V391.216H518.367V392.549H517.907V395.882" stroke="#519700"/>
<path d="M316.259 122H317.638V122.794H318.327V123.587H319.016V125.571" stroke="#519700"/>
<path d="M322.692 121.286H321.773V122.238H321.314V123.19H320.854V125.571" stroke="#519700"/>
<path d="M393.641 120H395.02V120.794H395.709V121.587H396.398V123.571" stroke="#519700"/>
<path d="M400.074 119.286H399.155V120.238H398.696V121.19H398.236V123.571" stroke="#519700"/>
<path d="M340.937 300.372H342.196V300.785H342.826V301.199H343.455V302.232" stroke="#519700"/>
<path d="M346.811 300H345.972V300.496H345.553V300.992H345.133V302.232" stroke="#519700"/>
<path d="M213.11 300.307H214.285V300.87H214.872V301.432H215.46V302.838" stroke="#519700"/>
<path d="M218.594 299.801H217.81V300.476H217.419V301.151H217.027V302.838" stroke="#519700"/>
<path d="M30.1255 239.333H31.3007V239.896H31.8883V240.458H32.4758V241.864" stroke="#519700"/>
<path d="M35.6097 238.827H34.8262V239.502H34.4345V240.177H34.0428V241.864" stroke="#519700"/>
<path d="M453 297H454.378V298.111H455.068V299.222H455.757V302" stroke="#519700"/>
<path d="M459.433 296H458.514V297.333H458.054V298.667H457.595V302" stroke="#519700"/>
<path d="M456 153.415H458.632V155.542H459.948V157.669H461.264V162.988" stroke="#519700"/>
<path d="M468.284 151.5H466.529V154.053H465.651V156.606H464.774V162.988" stroke="#519700"/>
<path d="M533.382 151.415H536.014V153.542H537.33V155.669H538.646V160.988" stroke="#519700"/>
<path d="M545.666 149.5H543.911V152.053H543.034V154.606H542.156V160.988" stroke="#519700"/>
<path d="M211.387 51.0499H213.822V51.8184H215.039V52.5869H216.256V54.5082" stroke="#519700"/>
<path d="M222.749 50.3582H221.126V51.2804H220.314V52.2026H219.503V54.5082" stroke="#519700"/>
<path d="M562.391 287H563.77V288.111H564.459V289.222H565.148V292" stroke="#519700"/>
<path d="M568.824 286H567.905V287.333H567.446V288.667H566.986V292" stroke="#519700"/>
<path d="M47.787 392H49.1655V393.111H49.8548V394.222H50.544V397" stroke="#519700"/>
<path d="M54.2199 391H53.3009V392.333H52.8414V393.667H52.3819V397" stroke="#519700"/>
<path d="M128.787 351H130.166V352.111H130.855V353.222H131.544V356" stroke="#519700"/>
<path d="M135.22 350H134.301V351.333H133.841V352.667H133.382V356" stroke="#519700"/>
<path d="M35.0417 286.29H36.9885V287.722H37.962V289.155H38.9354V292.737" stroke="#519700"/>
<path d="M44.1271 285H42.8292V286.719H42.1802V288.439H41.5312V292.737" stroke="#519700"/>
<path d="M22 312.628H23.7492V313.746H24.6237V314.864H25.4983V317.66" stroke="#519700"/>
<path d="M0 194.857H1.37847V195.651H2.06771V196.444H2.75694V198.429" stroke="#519700"/>
<path d="M6.43286 194.143H5.51388V195.095H5.05439V196.048H4.5949V198.429" stroke="#519700"/>
<path d="M122.026 174.237H124.103V175.073H125.141V175.909H126.179V178" stroke="#519700"/>
<path d="M131.716 173.484H130.332V174.487H129.64V175.491H128.948V178" stroke="#519700"/>
<path d="M68.0798 175.945H70.1561V176.782H71.1943V177.618H72.2324V179.709" stroke="#519700"/>
<path d="M77.7693 175.193H76.3851V176.196H75.693V177.2H75.0009V179.709" stroke="#519700"/>
<path d="M122.026 174.237H124.103V175.073H125.141V175.909H126.179V178" stroke="#519700"/>
<path d="M131.716 173.484H130.332V174.487H129.64V175.491H128.948V178" stroke="#519700"/>
<path d="M68.0798 175.945H70.1561V176.782H71.1943V177.618H72.2324V179.709" stroke="#519700"/>
<path d="M77.7693 175.193H76.3851V176.196H75.693V177.2H75.0009V179.709" stroke="#519700"/>
<path d="M122.026 174.237H124.103V175.073H125.141V175.909H126.179V178" stroke="#519700"/>
<path d="M131.716 173.484H130.332V174.487H129.64V175.491H128.948V178" stroke="#519700"/>
<path d="M68.0798 175.945H70.1561V176.782H71.1943V177.618H72.2324V179.709" stroke="#519700"/>
<path d="M77.7693 175.193H76.3851V176.196H75.693V177.2H75.0009V179.709" stroke="#519700"/>
<path d="M109.376 255.658H111.452V256.278H112.49V256.897H113.528V258.447" stroke="#519700"/>
<path d="M119.065 255.1H117.681V255.844H116.989V256.587H116.297V258.447" stroke="#519700"/>
<path d="M152.026 280.917H154.103V281.754H155.141V282.59H156.179V284.681" stroke="#519700"/>
<path d="M161.716 280.165H160.332V281.168H159.64V282.172H158.948V284.681" stroke="#519700"/>
<path d="M362.053 411H363.432V412.111H364.121V413.222H364.81V416" stroke="#519700"/>
<path d="M368.486 410H367.567V411.333H367.108V412.667H366.648V416" stroke="#519700"/>
<path d="M273.618 226.002H276.474V227.086H277.902V228.171H279.33V230.882" stroke="#519700"/>
<path d="M286.946 225.026H285.042V226.327H284.09V227.629H283.138V230.882" stroke="#519700"/>
<path d="M206 223.976H208.856V225.061H210.284V226.145H211.712V228.857" stroke="#519700"/>
<path d="M219.328 223H217.424V224.301H216.472V225.603H215.52V228.857" stroke="#519700"/>
<path d="M303.618 332.683H306.474V333.767H307.902V334.852H309.33V337.563" stroke="#519700"/>
<path d="M316.946 331.707H315.042V333.008H314.09V334.31H313.138V337.563" stroke="#519700"/>
<path d="M351 224.002H353.856V225.086H355.284V226.171H356.712V228.882" stroke="#519700"/>
<path d="M364.328 223.026H362.424V224.327H361.472V225.629H360.52V228.882" stroke="#519700"/>
<path d="M354.631 44.0019H357.487V45.0864H358.915V46.171H360.343V48.8823" stroke="#519700"/>
<path d="M367.958 43.0258H366.054V44.3273H365.103V45.6287H364.151V48.8823" stroke="#519700"/>
<path d="M302 354.542H304.608V355.107H305.912V355.672H307.216V357.084" stroke="#519700"/>
<path d="M314.17 354.034H312.431V354.711H311.562V355.389H310.693V357.084" stroke="#519700"/>
<path d="M47.0424 99.9503H48.9009V100.623H49.8302V101.297H50.7594V102.979" stroke="#519700"/>
<path d="M55.7155 99.3446H54.4765V100.152H53.8569V100.96H53.2374V102.979" stroke="#519700"/>
<path d="M186.272 394.002H189.128V395.086H190.556V396.171H191.984V398.882" stroke="#519700"/>
<path d="M199.6 393.026H197.696V394.327H196.744V395.629H195.792V398.882" stroke="#519700"/>
<path d="M372.317 249H373.696V250.111H374.385V251.222H375.074V254" stroke="#519700"/>
<path d="M378.75 248H377.831V249.333H377.372V250.667H376.912V254" stroke="#519700"/>
<path d="M375.948 69H377.326V70.1111H378.016V71.2222H378.705V74" stroke="#519700"/>
<path d="M382.381 68H381.462V69.3333H381.002V70.6667H380.543V74" stroke="#519700"/>
<path d="M449.699 247H451.078V248.111H451.767V249.222H452.456V252" stroke="#519700"/>
<path d="M456.132 246H455.213V247.333H454.754V248.667H454.294V252" stroke="#519700"/>
<path d="M392.126 366.521H393.385V367.099H394.014V367.678H394.643V369.125" stroke="#519700"/>
<path d="M398 366H397.161V366.694H396.741V367.389H396.322V369.125" stroke="#519700"/>
<path d="M527.873 383.849H528.849V384.133H529.337V384.418H529.826V385.129" stroke="#519700"/>
<path d="M532.43 383.593H531.779V383.934H531.453V384.275H531.128V385.129" stroke="#519700"/>
<path d="M460.873 404.849H461.849V405.133H462.337V405.418H462.826V406.129" stroke="#519700"/>
<path d="M465.43 404.593H464.779V404.934H464.453V405.275H464.128V406.129" stroke="#519700"/>
<path d="M284.971 417H286.35V418.111H287.039V419.222H287.728V422" stroke="#519700"/>
<path d="M291.404 416H290.485V417.333H290.026V418.667H289.566V422" stroke="#519700"/>
<path d="M201.268 164.508H204.124V165.593H205.552V166.678H206.98V169.389" stroke="#519700"/>
<path d="M214.596 163.532H212.692V164.834H211.74V166.135H210.788V169.389" stroke="#519700"/>
<path d="M231.268 271.189H234.124V272.274H235.552V273.358H236.98V276.07" stroke="#519700"/>
<path d="M244.596 270.213H242.692V271.515H241.74V272.816H240.788V276.07" stroke="#519700"/>
<path d="M-0.0397034 61.7865H1.8188V62.4596H2.74805V63.1327H3.67731V64.8154" stroke="#519700"/>
<path d="M8.63333 61.1808H7.39433V61.9885H6.77483V62.7962H6.15532V64.8154" stroke="#519700"/>
<path d="M537.449 435H538.828V436.111H539.517V437.222H540.206V440" stroke="#519700"/>
<path d="M543.882 434H542.963V435.333H542.503V436.667H542.044V440" stroke="#519700"/>
<path d="M337.396 153.429H338.774V154.222H339.464V155.016H340.153V157" stroke="#519700"/>
<path d="M343.829 152.714H342.91V153.667H342.45V154.619H341.991V157" stroke="#519700"/>
<path d="M414.778 151.429H416.156V152.222H416.846V153.016H417.535V155" stroke="#519700"/>
<path d="M421.211 150.714H420.292V151.667H419.832V152.619H419.373V155" stroke="#519700"/>
<path d="M360.238 316.742H361.497V317.155H362.126V317.569H362.755V318.602" stroke="#519700"/>
<path d="M366.112 316.37H365.273V316.866H364.853V317.362H364.434V318.602" stroke="#519700"/>
<path d="M144.608 94.6246H147.043V95.3932H148.261V96.1617H149.478V98.083" stroke="#519700"/>
<path d="M155.97 93.933H154.347V94.8552H153.536V95.7774H152.724V98.083" stroke="#519700"/>
<path d="M112 49.6917H114.435V50.4602H115.652V51.2287H116.869V53.15" stroke="#519700"/>
<path d="M123.362 49H121.739V49.9222H120.927V50.8444H120.116V53.15" stroke="#519700"/>
<path d="M496.192 319H497.571V320.111H498.26V321.222H498.949V324" stroke="#519700"/>
<path d="M502.625 318H501.706V319.333H501.247V320.667H500.787V324" stroke="#519700"/>
<path d="M538.476 195.537H541.108V197.664H542.424V199.791H543.74V205.11" stroke="#519700"/>
<path d="M550.759 193.622H549.005V196.175H548.127V198.728H547.25V205.11" stroke="#519700"/>
<path d="M324.53 92.7143H325.909V93.5079H326.598V94.3016H327.287V96.2857" stroke="#519700"/>
<path d="M330.963 92H330.044V92.9524H329.584V93.9048H329.125V96.2857" stroke="#519700"/>
<path d="M80.1739 17.2299H81.0709V17.7224H81.5194V18.215H81.968V19.4464" stroke="#519700"/>
<path d="M84.3601 16.7866H83.7621V17.3777H83.4631V17.9687H83.164V19.4464" stroke="#519700"/>
<path d="M228 141.638H230.848V143.08H232.272V144.522H233.696V148.128" stroke="#519700"/>
<path d="M241.292 140.34H239.393V142.071H238.443V143.801H237.494V148.128" stroke="#519700"/>
<path d="M17.3563 47.5929H19.2098V48.4879H20.1365V49.3829H21.0633V51.6203" stroke="#519700"/>
<path d="M26.0059 46.7874H24.7702V47.8614H24.1524V48.9354H23.5346V51.6203" stroke="#519700"/>
<path d="M220.161 279.555H221.336V280.118H221.924V280.68H222.511V282.086" stroke="#519700"/>
<path d="M225.645 279.049H224.862V279.724H224.47V280.399H224.078V282.086" stroke="#519700"/>
<path d="M12.2548 133.187H13.0196V133.536H13.402V133.885H13.7843V134.757" stroke="#519700"/>
<path d="M15.8237 132.872H15.3138V133.291H15.0589V133.71H14.804V134.757" stroke="#519700"/>
<path d="M461.271 256H462.649V257.111H463.339V258.222H464.028V261" stroke="#519700"/>
<path d="M467.704 255H466.785V256.333H466.325V257.667H465.866V261" stroke="#519700"/>
<path d="M538.653 254H540.031V255.111H540.721V256.222H541.41V259" stroke="#519700"/>
<path d="M545.086 253H544.167V254.333H543.707V255.667H543.248V259" stroke="#519700"/>
<path d="M373.925 424H375.304V425.111H375.993V426.222H376.682V429" stroke="#519700"/>
<path d="M380.358 423H379.439V424.333H378.98V425.667H378.52V429" stroke="#519700"/>
<path d="M471.793 74.9146H474.425V77.042H475.741V79.1694H477.058V84.4878" stroke="#519700"/>
<path d="M484.077 73H482.322V75.5528H481.445V78.1057H480.567V84.4878" stroke="#519700"/>
<path d="M537 41.4146H538.5V42.9865H539.25V44.5583H540V48.4878" stroke="#519700"/>
<path d="M544 40H543V41.8862H542.5V43.7724H542V48.4878" stroke="#519700"/>
<path d="M555 77.4146H556.5V78.9865H557.25V80.5583H558V84.4878" stroke="#519700"/>
<path d="M562 76H561V77.8862H560.5V79.7724H560V84.4878" stroke="#519700"/>
<path d="M176.006 6.18313H177.719V7.50341H178.576V8.82369H179.432V12.1244" stroke="#519700"/>
<path d="M184 4.99487H182.858V6.57921H182.287V8.16355H181.716V12.1244" stroke="#519700"/>
<path d="M225.995 22.6917H228.43V23.4602H229.647V24.2287H230.865V26.15" stroke="#519700"/>
<path d="M237.357 22H235.734V22.9222H234.923V23.8444H234.111V26.15" stroke="#519700"/>
<path d="M570.662 246H572.041V247.111H572.73V248.222H573.419V251" stroke="#519700"/>
<path d="M577.095 245H576.176V246.333H575.716V247.667H575.257V251" stroke="#519700"/>
<path d="M59.7338 405H61.1123V406.111H61.8015V407.222H62.4907V410" stroke="#519700"/>
<path d="M59.7338 401H61.1123V403H61.8015V405H62.4907V410" stroke="#2F9A00"/>
<path d="M66.1667 404H65.2477V405.333H64.7882V406.667H64.3287V410" stroke="#519700"/>
<path d="M65.2477 403H64.3287V404.556H63.8692V406.111H63.4097V410" stroke="#2F9A00"/>
<path d="M140.734 364H142.112V365.111H142.802V366.222H143.491V369" stroke="#519700"/>
<path d="M140.734 360H142.112V362H142.802V364H143.491V369" stroke="#2F9A00"/>
<path d="M147.167 363H146.248V364.333H145.788V365.667H145.329V369" stroke="#519700"/>
<path d="M146.248 362H145.329V363.556H144.869V365.111H144.41V369" stroke="#2F9A00"/>
<path d="M51.9146 303.053H53.8615V304.486H54.8349V305.919H55.8083V309.501" stroke="#519700"/>
<path d="M51.9146 297.895H53.8615V300.474H54.8349V303.053H55.8083V309.501" stroke="#2F9A00"/>
<path d="M61 301.764H59.7021V303.483H59.0531V305.202H58.4042V309.501" stroke="#519700"/>
<path d="M59.7021 300.474H58.4041V302.48H57.7552V304.486H57.1062V309.501" stroke="#2F9A00"/>
<path d="M11.9467 204.143H13.3252V204.937H14.0145V205.73H14.7037V207.714" stroke="#519700"/>
<path d="M11.9467 201.286H13.3252V202.714H14.0145V204.143H14.7037V207.714" stroke="#2F9A00"/>
<path d="M18.3796 203.429H17.4606V204.381H17.0011V205.333H16.5416V207.714" stroke="#519700"/>
<path d="M17.4606 202.714H16.5417V203.825H16.0822V204.937H15.6227V207.714" stroke="#2F9A00"/>
<path d="M92.9467 174.857H94.3252V175.651H95.0145V176.444H95.7037V178.429" stroke="#519700"/>
<path d="M92.9467 172H94.3252V173.429H95.0145V174.857H95.7037V178.429" stroke="#2F9A00"/>
<path d="M99.3796 174.143H98.4607V175.095H98.0012V176.048H97.5417V178.429" stroke="#519700"/>
<path d="M98.4606 173.429H97.5417V174.54H97.0822V175.651H96.6227V178.429" stroke="#2F9A00"/>
<path d="M39 176.566H40.3785V177.36H41.0677V178.153H41.7569V180.137" stroke="#519700"/>
<path d="M39 173.709H40.3785V175.137H41.0677V176.566H41.7569V180.137" stroke="#2F9A00"/>
<path d="M45.4329 175.852H44.5139V176.804H44.0544V177.756H43.5949V180.137" stroke="#519700"/>
<path d="M44.5139 175.137H43.5949V176.249H43.1354V177.36H42.6759V180.137" stroke="#2F9A00"/>
<path d="M92.9467 174.857H94.3252V175.651H95.0145V176.444H95.7037V178.429" stroke="#519700"/>
<path d="M92.9467 172H94.3252V173.429H95.0145V174.857H95.7037V178.429" stroke="#2F9A00"/>
<path d="M99.3796 174.143H98.4607V175.095H98.0012V176.048H97.5417V178.429" stroke="#519700"/>
<path d="M98.4606 173.429H97.5417V174.54H97.0822V175.651H96.6227V178.429" stroke="#2F9A00"/>
<path d="M39 176.566H40.3785V177.36H41.0677V178.153H41.7569V180.137" stroke="#519700"/>
<path d="M39 173.709H40.3785V175.137H41.0677V176.566H41.7569V180.137" stroke="#2F9A00"/>
<path d="M45.4329 175.852H44.5139V176.804H44.0544V177.756H43.5949V180.137" stroke="#519700"/>
<path d="M44.5139 175.137H43.5949V176.249H43.1354V177.36H42.6759V180.137" stroke="#2F9A00"/>
<path d="M92.9467 174.857H94.3252V175.651H95.0145V176.444H95.7037V178.429" stroke="#519700"/>
<path d="M92.9467 172H94.3252V173.429H95.0145V174.857H95.7037V178.429" stroke="#2F9A00"/>
<path d="M99.3796 174.143H98.4607V175.095H98.0012V176.048H97.5417V178.429" stroke="#519700"/>
<path d="M98.4606 173.429H97.5417V174.54H97.0822V175.651H96.6227V178.429" stroke="#2F9A00"/>
<path d="M39 176.566H40.3785V177.36H41.0677V178.153H41.7569V180.137" stroke="#519700"/>
<path d="M39 173.709H40.3785V175.137H41.0677V176.566H41.7569V180.137" stroke="#2F9A00"/>
<path d="M45.4329 175.852H44.5139V176.804H44.0544V177.756H43.5949V180.137" stroke="#519700"/>
<path d="M44.5139 175.137H43.5949V176.249H43.1354V177.36H42.6759V180.137" stroke="#2F9A00"/>
<path d="M80.2958 256.118H81.6743V256.706H82.3635V257.294H83.0528V258.765" stroke="#519700"/>
<path d="M80.2958 254H81.6743V255.059H82.3635V256.118H83.0528V258.765" stroke="#2F9A00"/>
<path d="M86.7287 255.588H85.8097V256.294H85.3502V257H84.8907V258.765" stroke="#519700"/>
<path d="M85.8097 255.059H84.8907V255.882H84.4313V256.706H83.9718V258.765" stroke="#2F9A00"/>
<path d="M374 424H375.378V425.111H376.068V426.222H376.757V429" stroke="#519700"/>
<path d="M374 420H375.378V422H376.068V424H376.757V429" stroke="#2F9A00"/>
<path d="M380.433 423H379.514V424.333H379.054V425.667H378.595V429" stroke="#519700"/>
<path d="M379.514 422H378.595V423.556H378.135V425.111H377.676V429" stroke="#2F9A00"/>
<path d="M298.369 238.691H301.225V239.776H302.653V240.86H304.081V243.571" stroke="#519700"/>
<path d="M298.369 234.787H301.225V236.739H302.653V238.691H304.081V243.571" stroke="#2F9A00"/>
<path d="M311.697 237.715H309.793V239.016H308.841V240.318H307.889V243.571" stroke="#519700"/>
<path d="M309.793 236.739H307.889V238.257H306.937V239.776H305.985V243.571" stroke="#2F9A00"/>
<path d="M302 58.691H304.856V59.7755H306.284V60.8601H307.712V63.5714" stroke="#519700"/>
<path d="M302 54.7867H304.856V56.7388H306.284V58.691H307.712V63.5714" stroke="#2F9A00"/>
<path d="M315.328 57.7149H313.424V59.0164H312.472V60.3178H311.52V63.5714" stroke="#519700"/>
<path d="M313.424 56.7388H311.52V58.2572H310.568V59.7755H309.616V63.5714" stroke="#2F9A00"/>
<path d="M230.751 236.665H233.607V237.75H235.035V238.834H236.463V241.546" stroke="#519700"/>
<path d="M230.751 232.761H233.607V234.713H235.035V236.665H236.463V241.546" stroke="#2F9A00"/>
<path d="M244.079 235.689H242.175V236.991H241.223V238.292H240.271V241.546" stroke="#519700"/>
<path d="M242.175 234.713H240.271V236.231H239.319V237.75H238.367V241.546" stroke="#2F9A00"/>
<path d="M328.369 345.372H331.225V346.456H332.653V347.541H334.081V350.252" stroke="#519700"/>
<path d="M328.369 341.467H331.225V343.42H332.653V345.372H334.081V350.252" stroke="#2F9A00"/>
<path d="M341.697 344.396H339.793V345.697H338.841V346.999H337.889V350.252" stroke="#519700"/>
<path d="M339.793 343.42H337.889V344.938H336.937V346.456H335.985V350.252" stroke="#2F9A00"/>
<path d="M375.751 236.691H378.607V237.776H380.035V238.86H381.463V241.571" stroke="#519700"/>
<path d="M375.751 232.787H378.607V234.739H380.035V236.691H381.463V241.571" stroke="#2F9A00"/>
<path d="M389.079 235.715H387.175V237.016H386.223V238.318H385.271V241.571" stroke="#519700"/>
<path d="M387.175 234.739H385.271V236.257H384.319V237.776H383.367V241.571" stroke="#2F9A00"/>
<path d="M379.382 56.691H382.238V57.7755H383.666V58.8601H385.094V61.5714" stroke="#519700"/>
<path d="M379.382 52.7867H382.238V54.7388H383.666V56.691H385.094V61.5714" stroke="#2F9A00"/>
<path d="M392.71 55.7149H390.806V57.0164H389.854V58.3178H388.902V61.5714" stroke="#519700"/>
<path d="M390.806 54.7388H388.902V56.2572H387.95V57.7755H386.998V61.5714" stroke="#2F9A00"/>
<path d="M324.601 361.151H327.209V361.716H328.513V362.281H329.817V363.693" stroke="#519700"/>
<path d="M324.601 359.118H327.209V360.134H328.513V361.151H329.817V363.693" stroke="#2F9A00"/>
<path d="M336.771 360.643H335.033V361.321H334.163V361.999H333.294V363.693" stroke="#519700"/>
<path d="M335.033 360.134H333.294V360.925H332.425V361.716H331.556V363.693" stroke="#2F9A00"/>
<path d="M471 366.034H473.608V366.598H474.912V367.163H476.216V368.576" stroke="#519700"/>
<path d="M471 364H473.608V365.017H474.912V366.034H476.216V368.576" stroke="#2F9A00"/>
<path d="M483.17 365.525H481.431V366.203H480.562V366.881H479.693V368.576" stroke="#519700"/>
<path d="M481.431 365.017H479.693V365.808H478.824V366.599H477.954V368.576" stroke="#2F9A00"/>
<path d="M404 387.034H406.608V387.598H407.912V388.163H409.216V389.576" stroke="#519700"/>
<path d="M404 385H406.608V386.017H407.912V387.034H409.216V389.576" stroke="#2F9A00"/>
<path d="M416.17 386.525H414.431V387.203H413.562V387.881H412.693V389.576" stroke="#519700"/>
<path d="M414.431 386.017H412.693V386.808H411.824V387.599H410.954V389.576" stroke="#2F9A00"/>
<path d="M63.1495 107.825H65.008V108.498H65.9372V109.172H66.8665V110.854" stroke="#519700"/>
<path d="M63.1495 105.402H65.008V106.614H65.9372V107.825H66.8665V110.854" stroke="#2F9A00"/>
<path d="M71.8225 107.22H70.5835V108.027H69.964V108.835H69.3445V110.854" stroke="#519700"/>
<path d="M70.5835 106.614H69.3445V107.556H68.725V108.498H68.1055V110.854" stroke="#2F9A00"/>
<path d="M211.023 406.691H213.879V407.776H215.307V408.86H216.735V411.571" stroke="#519700"/>
<path d="M211.023 402.787H213.879V404.739H215.307V406.691H216.735V411.571" stroke="#2F9A00"/>
<path d="M224.351 405.715H222.447V407.016H221.495V408.318H220.543V411.571" stroke="#519700"/>
<path d="M222.447 404.739H220.543V406.257H219.591V407.776H218.639V411.571" stroke="#2F9A00"/>
<path d="M384.264 262H385.642V263.111H386.332V264.222H387.021V267" stroke="#519700"/>
<path d="M384.264 258H385.642V260H386.332V262H387.021V267" stroke="#2F9A00"/>
<path d="M390.697 261H389.778V262.333H389.318V263.667H388.859V267" stroke="#519700"/>
<path d="M389.778 260H388.859V261.556H388.399V263.111H387.94V267" stroke="#2F9A00"/>
<path d="M387.895 82H389.273V83.1111H389.962V84.2222H390.652V87" stroke="#519700"/>
<path d="M387.895 78H389.273V80H389.962V82H390.652V87" stroke="#2F9A00"/>
<path d="M394.328 81H393.409V82.3333H392.949V83.6667H392.49V87" stroke="#519700"/>
<path d="M393.409 80H392.49V81.5556H392.03V83.1111H391.571V87" stroke="#2F9A00"/>
<path d="M461.646 260H463.024V261.111H463.714V262.222H464.403V265" stroke="#519700"/>
<path d="M461.646 256H463.024V258H463.714V260H464.403V265" stroke="#2F9A00"/>
<path d="M468.079 259H467.16V260.333H466.7V261.667H466.241V265" stroke="#519700"/>
<path d="M467.16 258H466.241V259.556H465.781V261.111H465.322V265" stroke="#2F9A00"/>
<path d="M296.918 430H298.297V431.111H298.986V432.222H299.675V435" stroke="#519700"/>
<path d="M296.918 426H298.297V428H298.986V430H299.675V435" stroke="#2F9A00"/>
<path d="M303.351 429H302.432V430.333H301.973V431.667H301.513V435" stroke="#519700"/>
<path d="M302.432 428H301.513V429.556H301.054V431.111H300.594V435" stroke="#2F9A00"/>
<path d="M226.019 177.198H228.875V178.282H230.303V179.367H231.731V182.078" stroke="#519700"/>
<path d="M226.019 173.293H228.875V175.245H230.303V177.198H231.731V182.078" stroke="#2F9A00"/>
<path d="M239.347 176.222H237.443V177.523H236.491V178.824H235.539V182.078" stroke="#519700"/>
<path d="M237.443 175.245H235.539V176.764H234.587V178.282H233.635V182.078" stroke="#2F9A00"/>
<path d="M256.019 283.878H258.875V284.963H260.303V286.048H261.731V288.759" stroke="#519700"/>
<path d="M256.019 279.974H258.875V281.926H260.303V283.878H261.731V288.759" stroke="#2F9A00"/>
<path d="M269.347 282.902H267.443V284.204H266.491V285.505H265.539V288.759" stroke="#519700"/>
<path d="M267.443 281.926H265.539V283.445H264.587V284.963H263.635V288.759" stroke="#2F9A00"/>
<path d="M73.0351 222.904H75.891V223.989H77.319V225.073H78.747V227.785" stroke="#519700"/>
<path d="M73.0351 219H75.891V220.952H77.319V222.904H78.747V227.785" stroke="#2F9A00"/>
<path d="M86.3627 221.928H84.4588V223.23H83.5068V224.531H82.5548V227.785" stroke="#519700"/>
<path d="M86.3627 221.928H84.4588V223.23H83.5068V224.531H82.5548V227.785" stroke="#519700"/>
<path d="M86.3627 221.928H84.4588V223.23H83.5068V224.531H82.5548V227.785" stroke="#519700"/>
<path d="M74 291H72V291.889H71V292.778H70V295" stroke="#519700"/>
<path d="M84.4588 220.952H82.5549V222.471H81.6029V223.989H80.6509V227.785" stroke="#2F9A00"/>
<path d="M84.4588 220.952H82.5549V222.471H81.6029V223.989H80.6509V227.785" stroke="#2F9A00"/>
<path d="M84.4588 220.952H82.5549V222.471H81.6029V223.989H80.6509V227.785" stroke="#2F9A00"/>
<path d="M72 290H70V291.111H69V292.222H68V295" stroke="#2F9A00"/>
<path d="M16.0673 69.6616H17.9258V70.3347H18.8551V71.0078H19.7843V72.6905" stroke="#519700"/>
<path d="M16.0673 67.2385H17.9258V68.4501H18.8551V69.6616H19.7843V72.6905" stroke="#2F9A00"/>
<path d="M24.7404 69.0558H23.5014V69.8635H22.8819V70.6712H22.2623V72.6905" stroke="#519700"/>
<path d="M23.5014 68.4501H22.2624V69.3924H21.6429V70.3347H21.0234V72.6905" stroke="#2F9A00"/>
<path d="M349.343 162.714H350.721V163.508H351.41V164.302H352.1V166.286" stroke="#519700"/>
<path d="M349.343 159.857H350.721V161.286H351.41V162.714H352.1V166.286" stroke="#2F9A00"/>
<path d="M355.775 162H354.856V162.952H354.397V163.905H353.937V166.286" stroke="#519700"/>
<path d="M354.856 161.286H353.937V162.397H353.478V163.508H353.019V166.286" stroke="#2F9A00"/>
<path d="M426.725 160.714H428.103V161.508H428.792V162.302H429.482V164.286" stroke="#519700"/>
<path d="M426.725 157.857H428.103V159.286H428.792V160.714H429.482V164.286" stroke="#2F9A00"/>
<path d="M433.158 160H432.239V160.952H431.779V161.905H431.32V164.286" stroke="#519700"/>
<path d="M432.239 159.286H431.32V160.397H430.86V161.508H430.401V164.286" stroke="#2F9A00"/>
<path d="M371.147 321.578H372.406V321.992H373.035V322.405H373.664V323.439" stroke="#519700"/>
<path d="M371.147 320.09H372.406V320.834H373.035V321.578H373.664V323.439" stroke="#2F9A00"/>
<path d="M377.021 321.206H376.182V321.702H375.762V322.198H375.343V323.439" stroke="#519700"/>
<path d="M376.182 320.834H375.343V321.413H374.923V321.992H374.504V323.439" stroke="#2F9A00"/>
<path d="M165.709 103.616H168.144V104.385H169.362V105.153H170.579V107.075" stroke="#519700"/>
<path d="M165.709 100.85H168.144V102.233H169.362V103.616H170.579V107.075" stroke="#2F9A00"/>
<path d="M177.072 102.925H175.448V103.847H174.637V104.769H173.825V107.075" stroke="#519700"/>
<path d="M175.448 102.233H173.825V103.309H173.014V104.385H172.202V107.075" stroke="#2F9A00"/>
<path d="M133.101 58.6833H135.536V59.4518H136.753V60.2203H137.971V62.1416" stroke="#519700"/>
<path d="M133.101 55.9167H135.536V57.3H136.753V58.6833H137.971V62.1416" stroke="#2F9A00"/>
<path d="M144.463 57.9916H142.84V58.9139H142.028V59.8361H141.217V62.1416" stroke="#519700"/>
<path d="M142.84 57.3H141.217V58.3759H140.405V59.4518H139.594V62.1416" stroke="#2F9A00"/>
<path d="M508.139 332H509.517V333.111H510.207V334.222H510.896V337" stroke="#519700"/>
<path d="M508.139 328H509.517V330H510.207V332H510.896V337" stroke="#2F9A00"/>
<path d="M514.572 331H513.653V332.333H513.193V333.667H512.734V337" stroke="#519700"/>
<path d="M513.653 330H512.734V331.556H512.274V333.111H511.815V337" stroke="#2F9A00"/>
<path d="M561.288 220.427H563.92V222.554H565.236V224.682H566.552V230" stroke="#519700"/>
<path d="M561.288 212.768H563.92V216.598H565.236V220.427H566.552V230" stroke="#2F9A00"/>
<path d="M573.572 218.512H571.817V221.065H570.939V223.618H570.062V230" stroke="#519700"/>
<path d="M571.817 216.598H570.062V219.576H569.185V222.554H568.307V230" stroke="#2F9A00"/>
<path d="M336.477 102H337.855V102.794H338.545V103.587H339.234V105.571" stroke="#519700"/>
<path d="M336.477 99.1429H337.855V100.571H338.545V102H339.234V105.571" stroke="#2F9A00"/>
<path d="M342.91 101.286H341.991V102.238H341.531V103.19H341.072V105.571" stroke="#519700"/>
<path d="M341.991 100.571H341.072V101.683H340.612V102.794H340.153V105.571" stroke="#2F9A00"/>
<path d="M87.9483 22.9927H88.8454V23.4853H89.2939V23.9778H89.7424V25.2092" stroke="#519700"/>
<path d="M87.9483 21.2196H88.8454V22.1061H89.2939V22.9927H89.7424V25.2092" stroke="#2F9A00"/>
<path d="M92.1345 22.5494H91.5365V23.1405H91.2375V23.7316H90.9385V25.2092" stroke="#519700"/>
<path d="M91.5365 22.1061H90.9385V22.7957H90.6394V23.4853H90.3404V25.2092" stroke="#2F9A00"/>
<path d="M252.685 158.511H255.533V159.953H256.957V161.395H258.381V165" stroke="#519700"/>
<path d="M252.685 153.319H255.533V155.915H256.957V158.511H258.381V165" stroke="#2F9A00"/>
<path d="M265.976 157.213H264.077V158.943H263.128V160.674H262.179V165" stroke="#519700"/>
<path d="M264.077 155.915H262.179V157.934H261.229V159.953H260.28V165" stroke="#2F9A00"/>
<path d="M282.685 265.191H285.533V266.634H286.957V268.076H288.381V271.681" stroke="#519700"/>
<path d="M282.685 260H285.533V262.596H286.957V265.191H288.381V271.681" stroke="#2F9A00"/>
<path d="M295.976 263.894H294.077V265.624H293.128V267.355H292.179V271.681" stroke="#519700"/>
<path d="M294.077 262.596H292.179V264.615H291.229V266.634H290.28V271.681" stroke="#2F9A00"/>
<path d="M33.4199 58.0642H35.2734V58.9591H36.2001V59.8541H37.1269V62.0916" stroke="#519700"/>
<path d="M33.4199 54.8423H35.2734V56.4532H36.2001V58.0642H37.1269V62.0916" stroke="#2F9A00"/>
<path d="M42.0695 57.2587H40.8339V58.3327H40.216V59.4066H39.5982V62.0916" stroke="#519700"/>
<path d="M40.8339 56.4532H39.5982V57.7062H38.9804V58.9592H38.3626V62.0916" stroke="#2F9A00"/>
<path d="M230.346 286.135H231.521V286.698H232.108V287.26H232.696V288.666" stroke="#519700"/>
<path d="M230.346 284.111H231.521V285.123H232.108V286.135H232.696V288.666" stroke="#2F9A00"/>
<path d="M235.83 285.629H235.046V286.304H234.655V286.979H234.263V288.666" stroke="#519700"/>
<path d="M235.046 285.123H234.263V285.91H233.871V286.698H233.479V288.666" stroke="#2F9A00"/>
<path d="M47.3615 225.161H48.5366V225.724H49.1242V226.286H49.7118V227.692" stroke="#519700"/>
<path d="M47.3615 223.137H48.5366V224.149H49.1242V225.161H49.7118V227.692" stroke="#2F9A00"/>
<path d="M52.8456 224.655H52.0622V225.33H51.6705V226.005H51.2787V227.692" stroke="#519700"/>
<path d="M52.0622 224.149H51.2787V224.936H50.887V225.724H50.4953V227.692" stroke="#2F9A00"/>
<path d="M473.218 269H474.596V270.111H475.285V271.222H475.975V274" stroke="#519700"/>
<path d="M473.218 265H474.596V267H475.285V269H475.975V274" stroke="#2F9A00"/>
<path d="M479.65 268H478.731V269.333H478.272V270.667H477.812V274" stroke="#519700"/>
<path d="M478.731 267H477.812V268.556H477.353V270.111H476.894V274" stroke="#2F9A00"/>
<path d="M550.6 267H551.978V268.111H552.667V269.222H553.357V272" stroke="#519700"/>
<path d="M550.6 263H551.978V265H552.667V267H553.357V272" stroke="#2F9A00"/>
<path d="M557.033 266H556.114V267.333H555.654V268.667H555.195V272" stroke="#519700"/>
<path d="M556.114 265H555.195V266.556H554.735V268.111H554.276V272" stroke="#2F9A00"/>
<path d="M176.933 126.636H177.83V127.325H178.279V128.015H178.727V129.739" stroke="#519700"/>
<path d="M176.933 124.153H177.83V125.394H178.279V126.636H178.727V129.739" stroke="#2F9A00"/>
<path d="M181.119 126.015H180.521V126.843H180.222V127.67H179.923V129.739" stroke="#519700"/>
<path d="M180.521 125.394H179.923V126.36H179.624V127.325H179.325V129.739" stroke="#2F9A00"/>
<path d="M494.606 99.8049H497.238V101.932H498.554V104.06H499.87V109.378" stroke="#519700"/>
<path d="M494.606 92.1463H497.238V95.9756H498.554V99.8049H499.87V109.378" stroke="#2F9A00"/>
<path d="M506.889 97.8902H505.134V100.443H504.257V102.996H503.38V109.378" stroke="#519700"/>
<path d="M505.134 95.9756H503.38V98.9539H502.502V101.932H501.625V109.378" stroke="#2F9A00"/>
<path d="M247.096 31.6833H249.531V32.4518H250.748V33.2203H251.966V35.1416" stroke="#519700"/>
<path d="M247.096 28.9166H249.531V30.3H250.748V31.6833H251.966V35.1416" stroke="#2F9A00"/>
<path d="M258.458 30.9916H256.835V31.9138H256.024V32.8361H255.212V35.1416" stroke="#519700"/>
<path d="M256.835 30.3H255.212V31.3759H254.4V32.4518H253.589V35.1416" stroke="#2F9A00"/>
<path d="M582.609 259H583.987V260.111H584.676V261.222H585.366V264" stroke="#519700"/>
<path d="M582.609 255H583.987V257H584.676V259H585.366V264" stroke="#2F9A00"/>
<path d="M147.037 253.429H148.416V254.222H149.105V255.016H149.794V257" stroke="#519700"/>
<path d="M147.037 250.571H148.416V252H149.105V253.429H149.794V257" stroke="#2F9A00"/>
<path d="M153.47 252.714H152.551V253.667H152.091V254.619H151.632V257" stroke="#519700"/>
<path d="M152.551 252H151.632V253.111H151.172V254.222H150.713V257" stroke="#2F9A00"/>
<path d="M147.037 253.429H148.416V254.222H149.105V255.016H149.794V257" stroke="#519700"/>
<path d="M147.037 250.571H148.416V252H149.105V253.429H149.794V257" stroke="#2F9A00"/>
<path d="M153.47 252.714H152.551V253.667H152.091V254.619H151.632V257" stroke="#519700"/>
<path d="M152.551 252H151.632V253.111H151.172V254.222H150.713V257" stroke="#2F9A00"/>
<path d="M147.037 253.429H148.416V254.222H149.105V255.016H149.794V257" stroke="#519700"/>
<path d="M147.037 250.571H148.416V252H149.105V253.429H149.794V257" stroke="#2F9A00"/>
<path d="M153.47 252.714H152.551V253.667H152.091V254.619H151.632V257" stroke="#519700"/>
<path d="M152.551 252H151.632V253.111H151.172V254.222H150.713V257" stroke="#2F9A00"/>
<path d="M143 324.118H144.378V324.706H145.068V325.294H145.757V326.765" stroke="#519700"/>
<path d="M143 322H144.378V323.059H145.068V324.118H145.757V326.765" stroke="#2F9A00"/>
<path d="M149.433 323.588H148.514V324.294H148.054V325H147.595V326.765" stroke="#519700"/>
<path d="M148.514 323.059H147.595V323.882H147.135V324.706H146.676V326.765" stroke="#2F9A00"/>
<path d="M142.514 221.121H145.37V222.206H146.798V223.291H148.226V226.002" stroke="#519700"/>
<path d="M142.514 217.217H145.37V219.169H146.798V221.121H148.226V226.002" stroke="#2F9A00"/>
<path d="M155.842 220.145H153.938V221.447H152.986V222.748H152.034V226.002" stroke="#519700"/>
<path d="M153.938 219.169H152.034V220.688H151.082V222.206H150.13V226.002" stroke="#2F9A00"/>
<path d="M142.514 221.121H145.37V222.206H146.798V223.291H148.226V226.002" stroke="#519700"/>
<path d="M142.514 217.217H145.37V219.169H146.798V221.121H148.226V226.002" stroke="#2F9A00"/>
<path d="M155.842 220.145H153.938V221.447H152.986V222.748H152.034V226.002" stroke="#519700"/>
<path d="M153.938 219.169H152.034V220.688H151.082V222.206H150.13V226.002" stroke="#2F9A00"/>
<path d="M142.514 221.121H145.37V222.206H146.798V223.291H148.226V226.002" stroke="#519700"/>
<path d="M142.514 217.217H145.37V219.169H146.798V221.121H148.226V226.002" stroke="#2F9A00"/>
<path d="M155.842 220.145H153.938V221.447H152.986V222.748H152.034V226.002" stroke="#519700"/>
<path d="M153.938 219.169H152.034V220.688H151.082V222.206H150.13V226.002" stroke="#2F9A00"/>
<path d="M106 287.894H108.856V288.698H110.284V289.501H111.712V291.511" stroke="#519700"/>
<path d="M106 285H108.856V286.447H110.284V287.894H111.712V291.511" stroke="#2F9A00"/>
<path d="M119.328 287.17H117.424V288.135H116.472V289.1H115.52V291.511" stroke="#519700"/>
<path d="M117.424 286.447H115.52V287.572H114.568V288.698H113.616V291.511" stroke="#2F9A00"/>
<path d="M172.514 327.802H175.37V328.887H176.798V329.971H178.226V332.683" stroke="#519700"/>
<path d="M172.514 323.898H175.37V325.85H176.798V327.802H178.226V332.683" stroke="#2F9A00"/>
<path d="M185.842 326.826H183.938V328.128H182.986V329.429H182.034V332.683" stroke="#519700"/>
<path d="M183.938 325.85H182.034V327.369H181.082V328.887H180.13V332.683" stroke="#2F9A00"/>
<path d="M133 388.297H134.378V389.091H135.068V389.884H135.757V391.868" stroke="#519700"/>
<path d="M133 385.44H134.378V386.868H135.068V388.297H135.757V391.868" stroke="#2F9A00"/>
<path d="M139.433 387.583H138.514V388.535H138.054V389.488H137.595V391.868" stroke="#519700"/>
<path d="M138.514 386.868H137.595V387.98H137.135V389.091H136.676V391.868" stroke="#2F9A00"/>
<path d="M63.8794 347.187H68.1725V348.994H70.3191V350.801H72.4656V355.318" stroke="#519700"/>
<path d="M63.8794 340.682H68.1725V343.935H70.3191V347.187H72.4656V355.318" stroke="#2F9A00"/>
<path d="M83.9139 345.561H81.0519V347.729H79.6208V349.897H78.1898V355.318" stroke="#519700"/>
<path d="M81.0518 343.935H78.1898V346.464H76.7587V348.994H75.3277V355.318" stroke="#2F9A00"/>
<path d="M214 359.011H215.378V359.805H216.068V360.599H216.757V362.583" stroke="#519700"/>
<path d="M214 356.154H215.378V357.583H216.068V359.011H216.757V362.583" stroke="#2F9A00"/>
<path d="M220.433 358.297H219.514V359.249H219.054V360.202H218.595V362.583" stroke="#519700"/>
<path d="M219.514 357.583H218.595V358.694H218.135V359.805H217.676V362.583" stroke="#2F9A00"/>
<path d="M538.169 408.882H539.547V409.993H540.237V411.105H540.926V413.882" stroke="#519700"/>
<path d="M538.169 404.882H539.547V406.882H540.237V408.882H540.926V413.882" stroke="#2F9A00"/>
<path d="M544.602 407.882H543.683V409.216H543.223V410.549H542.764V413.882" stroke="#519700"/>
<path d="M543.683 406.882H542.764V408.438H542.304V409.993H541.845V413.882" stroke="#2F9A00"/>
<path d="M471.169 429.882H472.547V430.993H473.237V432.105H473.926V434.882" stroke="#519700"/>
<path d="M471.169 425.882H472.547V427.882H473.237V429.882H473.926V434.882" stroke="#2F9A00"/>
<path d="M477.602 428.882H476.683V430.216H476.223V431.549H475.764V434.882" stroke="#519700"/>
<path d="M476.683 427.882H475.764V429.438H475.304V430.993H474.845V434.882" stroke="#2F9A00"/>
<path d="M34.2622 56.7262H35.3166V57.1815H35.8438V57.6368H36.371V58.7751" stroke="#519700"/>
<path d="M34.2622 55.087H35.3166V55.9066H35.8438V56.7262H36.371V58.7751" stroke="#2F9A00"/>
<path d="M39.1826 56.3164H38.4797V56.8628H38.1283V57.4092H37.7768V58.7751" stroke="#519700"/>
<path d="M38.4797 55.9066H37.7768V56.544H37.4254V57.1815H37.0739V58.7751" stroke="#2F9A00"/>
<path d="M380.303 386H381.682V387.111H382.371V388.222H383.06V391" stroke="#519700"/>
<path d="M380.303 382H381.682V384H382.371V386H383.06V391" stroke="#2F9A00"/>
<path d="M386.736 385H385.817V386.333H385.358V387.667H384.898V391" stroke="#519700"/>
<path d="M385.817 384H384.898V385.556H384.439V387.111H383.979V391" stroke="#2F9A00"/>
<path d="M518.7 393.424H519.769V393.971H520.304V394.517H520.839V395.882" stroke="#519700"/>
<path d="M518.7 391.458H519.769V392.441H520.304V393.424H520.839V395.882" stroke="#2F9A00"/>
<path d="M523.691 392.933H522.978V393.588H522.621V394.244H522.265V395.882" stroke="#519700"/>
<path d="M522.978 392.441H522.265V393.206H521.908V393.971H521.552V395.882" stroke="#2F9A00"/>
<path d="M451.7 414.424H452.769V414.971H453.304V415.517H453.839V416.882" stroke="#519700"/>
<path d="M451.7 412.458H452.769V413.441H453.304V414.424H453.839V416.882" stroke="#2F9A00"/>
<path d="M456.691 413.933H455.978V414.588H455.621V415.244H455.265V416.882" stroke="#519700"/>
<path d="M455.978 413.441H455.265V414.206H454.908V414.971H454.552V416.882" stroke="#2F9A00"/>
<path d="M195.984 308.912H197.159V309.474H197.747V310.037H198.335V311.443" stroke="#519700"/>
<path d="M195.984 306.887H197.159V307.9H197.747V308.912H198.335V311.443" stroke="#2F9A00"/>
<path d="M201.468 308.406H200.685V309.081H200.293V309.756H199.901V311.443" stroke="#519700"/>
<path d="M200.685 307.9H199.901V308.687H199.51V309.474H199.118V311.443" stroke="#2F9A00"/>
<path d="M13 247.938H14.1752V248.5H14.7628V249.063H15.3504V250.469" stroke="#519700"/>
<path d="M13 245.913H14.1752V246.926H14.7628V247.938H15.3504V250.469" stroke="#2F9A00"/>
<path d="M18.4842 247.432H17.7007V248.107H17.309V248.781H16.9173V250.469" stroke="#519700"/>
<path d="M17.7007 246.926H16.9173V247.713H16.5255V248.5H16.1338V250.469" stroke="#2F9A00"/>
<path d="M461.303 345H462.682V346.111H463.371V347.222H464.06V350" stroke="#519700"/>
<path d="M461.303 341H462.682V343H463.371V345H464.06V350" stroke="#2F9A00"/>
<path d="M467.736 344H466.817V345.333H466.358V346.667H465.898V350" stroke="#519700"/>
<path d="M466.817 343H465.898V344.556H465.439V346.111H464.979V350" stroke="#2F9A00"/>
<path d="M7.55136 30.9092H8.60574V31.3645H9.13293V31.8198H9.66011V32.9581" stroke="#519700"/>
<path d="M7.55136 29.27H8.60574V30.0896H9.13293V30.9092H9.66011V32.9581" stroke="#2F9A00"/>
<path d="M12.4718 30.4994H11.7689V31.0458H11.4174V31.5922H11.0659V32.9581" stroke="#519700"/>
<path d="M11.7689 30.0896H11.0659V30.727H10.7145V31.3645H10.363V32.9581" stroke="#2F9A00"/>
<path d="M345.382 251.286H346.76V252.079H347.45V252.873H348.139V254.857" stroke="#519700"/>
<path d="M345.382 248.429H346.76V249.857H347.45V251.286H348.139V254.857" stroke="#2F9A00"/>
<path d="M351.815 250.571H350.896V251.524H350.436V252.476H349.977V254.857" stroke="#519700"/>
<path d="M350.896 249.857H349.977V250.968H349.517V252.079H349.058V254.857" stroke="#2F9A00"/>
<path d="M349.013 71.2857H350.391V72.0794H351.08V72.873H351.77V74.8571" stroke="#519700"/>
<path d="M349.013 68.4286H350.391V69.8571H351.08V71.2857H351.77V74.8571" stroke="#2F9A00"/>
<path d="M355.446 70.5714H354.527V71.5238H354.067V72.4762H353.608V74.8571" stroke="#519700"/>
<path d="M354.527 69.8571H353.608V70.9683H353.148V72.0794H352.689V74.8571" stroke="#2F9A00"/>
<path d="M422.764 249.286H424.143V250.079H424.832V250.873H425.521V252.857" stroke="#519700"/>
<path d="M422.764 246.429H424.143V247.857H424.832V249.286H425.521V252.857" stroke="#2F9A00"/>
<path d="M429.197 248.571H428.278V249.524H427.818V250.476H427.359V252.857" stroke="#519700"/>
<path d="M428.278 247.857H427.359V248.968H426.899V250.079H426.44V252.857" stroke="#2F9A00"/>
<path d="M367.53 367.711H368.789V368.125H369.418V368.538H370.048V369.571" stroke="#519700"/>
<path d="M367.53 366.223H368.789V366.967H369.418V367.711H370.048V369.571" stroke="#2F9A00"/>
<path d="M373.404 367.339H372.565V367.835H372.146V368.331H371.726V369.571" stroke="#519700"/>
<path d="M372.565 366.967H371.726V367.546H371.307V368.125H370.887V369.571" stroke="#2F9A00"/>
<path d="M508.79 384.434H509.766V384.637H510.255V384.84H510.743V385.348" stroke="#519700"/>
<path d="M508.79 383.702H509.766V384.068H510.255V384.434H510.743V385.348" stroke="#2F9A00"/>
<path d="M513.347 384.251H512.696V384.495H512.371V384.739H512.045V385.348" stroke="#519700"/>
<path d="M512.696 384.068H512.045V384.353H511.72V384.637H511.394V385.348" stroke="#2F9A00"/>
<path d="M441.79 405.434H442.766V405.637H443.255V405.84H443.743V406.348" stroke="#519700"/>
<path d="M441.79 404.702H442.766V405.068H443.255V405.434H443.743V406.348" stroke="#2F9A00"/>
<path d="M446.347 405.251H445.696V405.495H445.371V405.739H445.045V406.348" stroke="#519700"/>
<path d="M445.696 405.068H445.045V405.353H444.72V405.637H444.394V406.348" stroke="#2F9A00"/>
<path d="M258.036 419.286H259.415V420.079H260.104V420.873H260.793V422.857" stroke="#519700"/>
<path d="M258.036 416.429H259.415V417.857H260.104V419.286H260.793V422.857" stroke="#2F9A00"/>
<path d="M264.469 418.571H263.55V419.524H263.091V420.476H262.631V422.857" stroke="#519700"/>
<path d="M263.55 417.857H262.631V418.968H262.172V420.079H261.712V422.857" stroke="#2F9A00"/>
<path d="M166.213 277.025H167.388V277.587H167.976V278.149H168.563V279.555" stroke="#519700"/>
<path d="M166.213 275H167.388V276.012H167.976V277.025H168.563V279.555" stroke="#2F9A00"/>
<path d="M171.697 276.518H170.914V277.193H170.522V277.868H170.13V279.555" stroke="#519700"/>
<path d="M170.914 276.012H170.13V276.8H169.738V277.587H169.347V279.555" stroke="#2F9A00"/>
<path d="M426.382 282H427.76V283.111H428.45V284.222H429.139V287" stroke="#519700"/>
<path d="M426.382 278H427.76V280H428.45V282H429.139V287" stroke="#2F9A00"/>
<path d="M432.815 281H431.896V282.333H431.436V283.667H430.977V287" stroke="#519700"/>
<path d="M431.896 280H430.977V281.556H430.517V283.111H430.058V287" stroke="#2F9A00"/>
<path d="M503.764 280H505.143V281.111H505.832V282.222H506.521V285" stroke="#519700"/>
<path d="M503.764 276H505.143V278H505.832V280H506.521V285" stroke="#2F9A00"/>
<path d="M510.197 279H509.278V280.333H508.818V281.667H508.359V285" stroke="#519700"/>
<path d="M509.278 278H508.359V279.556H507.899V281.111H507.44V285" stroke="#2F9A00"/>
<path d="M146.455 134.704H147.352V135.393H147.8V136.083H148.249V137.807" stroke="#519700"/>
<path d="M146.455 132.221H147.352V133.462H147.8V134.704H148.249V137.807" stroke="#2F9A00"/>
<path d="M150.641 134.083H150.043V134.911H149.744V135.738H149.445V137.807" stroke="#519700"/>
<path d="M150.043 133.462H149.445V134.428H149.146V135.393H148.847V137.807" stroke="#2F9A00"/>
<path d="M92.5079 136.413H93.405V137.102H93.8535V137.792H94.302V139.516" stroke="#519700"/>
<path d="M92.5079 133.93H93.405V135.171H93.8535V136.413H94.302V139.516" stroke="#2F9A00"/>
<path d="M96.6942 135.792H96.0961V136.619H95.7971V137.447H95.4981V139.516" stroke="#519700"/>
<path d="M96.0961 135.171H95.4981V136.137H95.199V137.102H94.9V139.516" stroke="#2F9A00"/>
<path d="M390.567 224H391.946V225.111H392.635V226.222H393.324V229" stroke="#519700"/>
<path d="M390.567 220H391.946V222H392.635V224H393.324V229" stroke="#2F9A00"/>
<path d="M397 223H396.081V224.333H395.622V225.667H395.162V229" stroke="#519700"/>
<path d="M396.081 222H395.162V223.556H394.703V225.111H394.243V229" stroke="#2F9A00"/>
<path d="M394.198 44H395.576V45.1111H396.266V46.2222H396.955V49" stroke="#519700"/>
<path d="M394.198 40H395.576V42H396.266V44H396.955V49" stroke="#2F9A00"/>
<path d="M400.631 43H399.712V44.3333H399.252V45.6667H398.793V49" stroke="#519700"/>
<path d="M399.712 42H398.793V43.5556H398.333V45.1111H397.874V49" stroke="#2F9A00"/>
<path d="M467.949 222H469.328V223.111H470.017V224.222H470.706V227" stroke="#519700"/>
<path d="M467.949 218H469.328V220H470.017V222H470.706V227" stroke="#2F9A00"/>
<path d="M474.382 221H473.463V222.333H473.004V223.667H472.544V227" stroke="#519700"/>
<path d="M473.463 220H472.544V221.556H472.085V223.111H471.625V227" stroke="#2F9A00"/>
<path d="M303.221 392H304.6V393.111H305.289V394.222H305.978V397" stroke="#519700"/>
<path d="M303.221 388H304.6V390H305.289V392H305.978V397" stroke="#2F9A00"/>
<path d="M309.654 391H308.735V392.333H308.276V393.667H307.816V397" stroke="#519700"/>
<path d="M308.735 390H307.816V391.556H307.357V393.111H306.897V397" stroke="#2F9A00"/>
<path d="M117 247H118.378V247.794H119.068V248.587H119.757V250.571" stroke="#519700"/>
<path d="M117 244.143H118.378V245.571H119.068V247H119.757V250.571" stroke="#2F9A00"/>
<path d="M123.433 246.286H122.514V247.238H122.054V248.19H121.595V250.571" stroke="#519700"/>
<path d="M122.514 245.571H121.595V246.683H121.135V247.794H120.676V250.571" stroke="#2F9A00"/>
<path d="M117 247H118.378V247.794H119.068V248.587H119.757V250.571" stroke="#519700"/>
<path d="M117 244.143H118.378V245.571H119.068V247H119.757V250.571" stroke="#2F9A00"/>
<path d="M123.433 246.286H122.514V247.238H122.054V248.19H121.595V250.571" stroke="#519700"/>
<path d="M122.514 245.571H121.595V246.683H121.135V247.794H120.676V250.571" stroke="#2F9A00"/>
<path d="M117 247H118.378V247.794H119.068V248.587H119.757V250.571" stroke="#519700"/>
<path d="M117 244.143H118.378V245.571H119.068V247H119.757V250.571" stroke="#2F9A00"/>
<path d="M123.433 246.286H122.514V247.238H122.054V248.19H121.595V250.571" stroke="#519700"/>
<path d="M122.514 245.571H121.595V246.683H121.135V247.794H120.676V250.571" stroke="#2F9A00"/>
<path d="M97 329.118H98.3785V329.706H99.0677V330.294H99.7569V331.765" stroke="#519700"/>
<path d="M97 327H98.3785V328.059H99.0677V329.118H99.7569V331.765" stroke="#2F9A00"/>
<path d="M103.433 328.588H102.514V329.294H102.054V330H101.595V331.765" stroke="#519700"/>
<path d="M102.514 328.059H101.595V328.882H101.135V329.706H100.676V331.765" stroke="#2F9A00"/>
<path d="M147 353.681H148.378V354.474H149.068V355.268H149.757V357.252" stroke="#519700"/>
<path d="M147 350.824H148.378V352.252H149.068V353.681H149.757V357.252" stroke="#2F9A00"/>
<path d="M153.433 352.967H152.514V353.919H152.054V354.871H151.595V357.252" stroke="#519700"/>
<path d="M152.514 352.252H151.595V353.363H151.135V354.474H150.676V357.252" stroke="#2F9A00"/>
<path d="M355.646 135.571H357.024V136.365H357.714V137.159H358.403V139.143" stroke="#519700"/>
<path d="M355.646 132.714H357.024V134.143H357.714V135.571H358.403V139.143" stroke="#2F9A00"/>
<path d="M362.079 134.857H361.16V135.81H360.7V136.762H360.241V139.143" stroke="#519700"/>
<path d="M361.16 134.143H360.241V135.254H359.781V136.365H359.322V139.143" stroke="#2F9A00"/>
<path d="M433.028 133.571H434.406V134.365H435.096V135.159H435.785V137.143" stroke="#519700"/>
<path d="M433.028 130.714H434.406V132.143H435.096V133.571H435.785V137.143" stroke="#2F9A00"/>
<path d="M439.461 132.857H438.542V133.81H438.082V134.762H437.623V137.143" stroke="#519700"/>
<path d="M438.542 132.143H437.623V133.254H437.163V134.365H436.704V137.143" stroke="#2F9A00"/>
<path d="M376.903 307.441H378.161V307.854H378.791V308.268H379.42V309.301" stroke="#519700"/>
<path d="M376.903 305.953H378.161V306.697H378.791V307.441H379.42V309.301" stroke="#2F9A00"/>
<path d="M382.777 307.069H381.938V307.565H381.518V308.061H381.099V309.301" stroke="#519700"/>
<path d="M381.938 306.697H381.099V307.275H380.679V307.854H380.259V309.301" stroke="#2F9A00"/>
<path d="M436.646 120H438.024V121.111H438.714V122.222H439.403V125" stroke="#519700"/>
<path d="M436.646 116H438.024V118H438.714V120H439.403V125" stroke="#2F9A00"/>
<path d="M443.079 119H442.16V120.333H441.7V121.667H441.241V125" stroke="#519700"/>
<path d="M442.16 118H441.241V119.556H440.781V121.111H440.322V125" stroke="#2F9A00"/>
<path d="M514.028 118H515.406V119.111H516.096V120.222H516.785V123" stroke="#519700"/>
<path d="M514.028 114H515.406V116H516.096V118H516.785V123" stroke="#2F9A00"/>
<path d="M520.461 117H519.542V118.333H519.082V119.667H518.623V123" stroke="#519700"/>
<path d="M519.542 116H518.623V117.556H518.163V119.111H517.704V123" stroke="#2F9A00"/>
<path d="M342.78 74.8571H344.159V75.6508H344.848V76.4444H345.537V78.4286" stroke="#519700"/>
<path d="M342.78 72H344.159V73.4286H344.848V74.8571H345.537V78.4286" stroke="#2F9A00"/>
<path d="M349.213 74.1429H348.294V75.0952H347.834V76.0476H347.375V78.4286" stroke="#519700"/>
<path d="M348.294 73.4286H347.375V74.5397H346.916V75.6508H346.456V78.4286" stroke="#2F9A00"/>
<path d="M92.0502 6.14744H92.9472V6.63999H93.3957V7.13254H93.8443V8.36392" stroke="#519700"/>
<path d="M92.0502 4.37425H92.9472V5.26085H93.3957V6.14744H93.8443V8.36393" stroke="#2F9A00"/>
<path d="M96.2364 5.70414H95.6384V6.2952H95.3393V6.88627H95.0403V8.36392" stroke="#519700"/>
<path d="M95.6384 5.26085H95.0403V5.95042H94.7413V6.64H94.4423V8.36393" stroke="#2F9A00"/>
<path d="M265.708 109.191H268.557V110.634H269.981V112.076H271.405V115.681" stroke="#519700"/>
<path d="M265.708 104H268.557V106.596H269.981V109.191H271.405V115.681" stroke="#2F9A00"/>
<path d="M279 107.894H277.101V109.624H276.152V111.355H275.202V115.681" stroke="#519700"/>
<path d="M277.101 106.596H275.202V108.615H274.253V110.634H273.304V115.681" stroke="#2F9A00"/>
<path d="M41.8952 27.4559H43.7487V28.3509H44.6754V29.2458H45.6022V31.4833" stroke="#519700"/>
<path d="M41.8952 24.234H43.7487V25.8449H44.6754V27.4559H45.6022V31.4833" stroke="#2F9A00"/>
<path d="M50.5449 26.6504H49.3092V27.7244H48.6914V28.7984H48.0735V31.4833" stroke="#519700"/>
<path d="M49.3092 25.8449H48.0735V27.0979H47.4557V28.3509H46.8379V31.4833" stroke="#2F9A00"/>
<path d="M423.78 35H425.159V36.1111H425.848V37.2222H426.537V40" stroke="#519700"/>
<path d="M423.78 31H425.159V33H425.848V35H426.537V40" stroke="#2F9A00"/>
<path d="M430.213 34H429.294V35.3333H428.834V36.6667H428.375V40" stroke="#519700"/>
<path d="M429.294 33H428.375V34.5556H427.916V36.1111H427.456V40" stroke="#2F9A00"/>
<path d="M476.297 374.802V374.676" stroke="#519700" stroke-linecap="square"/>
<path d="M409.297 395.802V395.676" stroke="#519700" stroke-linecap="square"/>
<path d="M402.826 375.209V375.083" stroke="#519700" stroke-linecap="square"/>
<path d="M491 368.882H492" stroke="#519700" stroke-linecap="square"/>
<path d="M424 389.882H425" stroke="#519700" stroke-linecap="square"/>
<path d="M347.895 324.58H347.571" stroke="#519700" stroke-linecap="square"/>
<path d="M352.109 321.987H352.434" stroke="#519700" stroke-linecap="square"/>
<path d="M247.658 223.319V224.877" stroke="#519700" stroke-linecap="square"/>
<path d="M277.658 330V331.558" stroke="#519700" stroke-linecap="square"/>
<path d="M321.411 208.776H321.931" stroke="#519700" stroke-linecap="square"/>
<path d="M325.042 28.7763H325.561" stroke="#519700" stroke-linecap="square"/>
<path d="M398.793 206.776H399.313" stroke="#519700" stroke-linecap="square"/>
</g>
<defs>
<clipPath id="clip0_1_1098">
<rect width="585" height="440" fill="white"/>
</clipPath>
</defs>
</svg>
